<?xml version="1.0" encoding="UTF-8" standalone="no"?>
<!-- Created with Inkscape (http://www.inkscape.org/) -->

<svg
   version="1.1"
   id="svg489"
   xml:space="preserve"
   width="32"
   height="32"
   viewBox="0 0 32 32"
   xmlns="http://www.w3.org/2000/svg"
   xmlns:svg="http://www.w3.org/2000/svg"><defs
     id="defs493"><clipPath
       clipPathUnits="userSpaceOnUse"
       id="clipPath503"><path
         d="M 0,24 H 24 V 0 H 0 Z"
         id="path501" /></clipPath></defs><g
     id="g495"
     transform="matrix(1.3333333,0,0,-1.3333333,0,32)"><g
       id="g497"><g
         id="g499"
         clip-path="url(#clipPath503)"><g
           id="g505"
           transform="translate(1,1)"><path
             d="M 0,0 H 8"
             style="fill:none;stroke:#ffffff;stroke-width:2;stroke-linecap:round;stroke-linejoin:miter;stroke-miterlimit:10;stroke-dasharray:none;stroke-opacity:1"
             id="path507" /></g><g
           id="g509"
           transform="translate(1,5)"><path
             d="M 0,0 H 6"
             style="fill:none;stroke:#ffffff;stroke-width:2;stroke-linecap:round;stroke-linejoin:miter;stroke-miterlimit:10;stroke-dasharray:none;stroke-opacity:1"
             id="path511" /></g><g
           id="g513"
           transform="translate(1,9)"><path
             d="M 0,0 H 4"
             style="fill:none;stroke:#ffffff;stroke-width:2;stroke-linecap:round;stroke-linejoin:miter;stroke-miterlimit:10;stroke-dasharray:none;stroke-opacity:1"
             id="path515" /></g><g
           id="g517"
           transform="translate(1.0449,13)"><path
             d="m 0,0 c 0.505,5.606 5.217,10 10.955,10 6.075,0 11,-4.925 11,-11 0,-5.738 -4.393,-10.45 -10,-10.955"
             style="fill:none;stroke:#ffffff;stroke-width:2;stroke-linecap:round;stroke-linejoin:miter;stroke-miterlimit:10;stroke-dasharray:none;stroke-opacity:1"
             id="path519" /></g><g
           id="g521"
           transform="translate(12,18)"><path
             d="m 0,0 c -0.553,0 -1,-0.447 -1,-1 v -5 c 0,-0.266 0.105,-0.52 0.293,-0.707 l 3,-3 C 2.488,-9.902 2.744,-10 3,-10 c 0.256,0 0.512,0.098 0.707,0.293 0.391,0.391 0.391,1.023 0,1.414 L 1,-5.586 V -1 C 1,-0.447 0.553,0 0,0"
             style="fill:#ffffff;fill-opacity:1;fill-rule:nonzero;stroke:none"
             id="path523" /></g></g></g></g></svg>
